<svg xmlns="http://www.w3.org/2000/svg" width="1254" height="836" viewBox="0 0 1254 836">
<g>
<path d="M 270.40 573.89 C266.54,569.62 247.12,557.50 234.50,551.48 C227.35,548.07 210.02,540.92 196.00,535.59 C149.20,517.79 116.63,503.35 104.53,495.02 C99.56,491.60 92.74,484.33 90.57,480.13 C88.16,475.47 79.52,454.23 73.88,439.10 C60.25,402.52 51.00,361.68 51.00,338.04 C51.00,331.53 51.43,331.14 56.00,333.50 C62.15,336.68 67.03,346.01 71.44,363.00 C79.75,395.06 91.67,425.13 102.64,441.65 C108.57,450.58 116.43,456.29 135.50,465.51 C153.53,474.24 159.89,478.88 168.17,489.34 C170.28,492.00 172.00,493.87 172.00,493.49 C172.00,493.10 170.33,489.58 168.28,485.65 C163.23,475.95 155.61,468.56 144.00,462.08 C126.95,452.57 115.26,444.27 111.02,438.64 C104.61,430.16 102.22,422.18 105.20,419.20 C108.42,415.98 118.97,419.28 140.36,430.21 C168.22,444.44 184.14,456.36 195.57,471.55 C202.50,480.76 206.57,484.23 223.18,495.10 C244.53,509.08 256.20,521.27 263.50,537.22 C267.33,545.59 274.61,576.00 272.78,576.00 C272.52,576.00 271.45,575.05 270.40,573.89 ZM 280.00 573.95 C280.00,571.98 283.36,559.53 284.17,558.51 C284.62,557.96 287.12,554.28 289.74,550.34 C295.79,541.25 303.24,534.94 314.00,529.82 C345.96,514.62 346.98,514.04 353.93,507.18 C359.93,501.26 364.07,495.88 367.54,489.50 C373.48,478.56 380.38,468.72 385.36,464.10 C386.78,462.79 387.70,461.33 387.42,460.87 C387.13,460.40 387.48,460.23 388.20,460.49 C389.60,461.00 396.34,455.28 396.75,453.23 C396.89,452.56 396.34,452.00 395.53,452.00 C394.72,452.00 394.29,452.59 394.57,453.31 C394.84,454.04 394.08,455.50 392.86,456.56 C391.65,457.63 391.04,457.86 391.50,457.07 C392.57,455.25 392.92,449.93 391.93,450.54 C391.52,450.80 390.07,449.68 388.70,448.06 C386.20,445.09 384.00,444.95 386.21,447.91 C387.21,449.24 387.18,449.30 386.00,448.25 C383.83,446.31 382.81,446.77 384.06,449.12 C384.83,450.55 384.85,451.03 384.12,450.57 C383.53,450.21 382.17,450.37 381.11,450.94 C377.38,452.94 379.43,449.20 383.80,446.03 C388.24,442.81 389.57,442.27 388.40,444.15 C387.96,444.88 388.13,445.04 388.86,444.59 C389.51,444.19 389.80,443.48 389.51,443.02 C388.78,441.83 407.80,431.76 409.18,432.61 C409.85,433.03 410.03,432.86 409.62,432.20 C408.83,430.91 411.20,429.59 426.45,422.84 C442.56,415.72 448.97,416.50 447.55,425.41 C445.80,436.37 434.28,447.29 410.00,461.02 C397.69,467.97 389.35,476.17 384.56,486.01 C382.60,490.04 381.18,493.51 381.40,493.74 C381.63,493.96 383.16,492.17 384.82,489.77 C391.59,479.93 399.67,473.85 418.12,464.71 C428.21,459.71 437.49,454.37 440.25,451.97 C451.56,442.14 466.47,407.95 476.08,369.80 C480.32,352.97 483.42,344.77 487.58,339.30 C490.32,335.71 495.48,332.56 497.03,333.52 C498.39,334.36 498.24,339.86 496.44,356.29 C492.98,387.76 483.82,421.22 467.05,463.65 C460.68,479.74 459.27,482.46 454.56,487.65 C443.67,499.64 416.59,512.62 351.50,537.06 C324.95,547.03 302.92,557.93 290.24,567.37 C284.61,571.56 280.00,574.52 280.00,573.95 ZM 382.49 449.01 C382.84,448.44 382.44,448.28 381.55,448.62 C379.82,449.28 379.50,450.00 380.94,450.00 C381.46,450.00 382.16,449.56 382.49,449.01 ZM 425.19 434.25 C426.02,433.29 427.02,431.83 427.42,431.00 C427.82,430.17 427.43,430.40 426.55,431.50 C425.67,432.60 424.21,434.06 423.29,434.75 C422.37,435.44 422.08,436.00 422.65,436.00 C423.22,436.00 424.37,435.21 425.19,434.25 ZM 426.13 428.25 C427.37,426.66 427.34,426.63 425.75,427.87 C424.79,428.63 424.00,429.41 424.00,429.62 C424.00,430.45 424.82,429.92 426.13,428.25 ZM 429.00 425.00 C429.00,424.45 428.52,424.00 427.94,424.00 C427.36,424.00 427.16,424.45 427.50,425.00 C427.84,425.55 428.32,426.00 428.56,426.00 C428.80,426.00 429.00,425.55 429.00,425.00 ZM 291.00 534.06 C291.00,533.54 291.44,532.84 291.99,532.51 C292.56,532.16 292.72,532.56 292.38,533.45 C291.72,535.18 291.00,535.50 291.00,534.06 ZM 301.31 518.89 C304.80,514.25 313.36,506.43 319.62,502.17 C323.01,499.85 323.59,499.63 321.50,501.44 C319.85,502.88 318.62,504.52 318.77,505.10 C318.93,505.68 318.56,505.85 317.96,505.48 C316.57,504.62 312.84,507.93 313.68,509.29 C314.03,509.86 313.82,510.01 313.19,509.62 C312.58,509.24 311.10,509.90 309.92,511.08 C308.54,512.46 308.15,513.47 308.84,513.90 C309.51,514.31 309.07,515.10 307.71,515.95 C305.69,517.20 305.62,517.18 306.87,515.66 C307.63,514.75 307.79,514.00 307.24,514.00 C305.95,514.00 302.46,519.18 302.86,520.50 C303.03,521.05 302.83,521.17 302.43,520.76 C302.02,520.35 300.99,520.58 300.13,521.26 C299.28,521.94 299.81,520.87 301.31,518.89 ZM 273.93 513.79 C264.56,501.94 257.02,481.82 257.01,468.63 L 257.00 462.77 L 253.06 466.33 C247.43,471.41 243.45,473.19 236.47,473.75 C221.30,474.97 204.78,464.88 200.41,451.73 C197.84,444.00 198.85,433.80 203.01,425.28 C206.72,417.70 215.91,407.90 223.41,403.50 C225.94,402.02 228.00,400.68 228.00,400.51 C228.00,400.35 222.94,400.21 216.75,400.21 C196.86,400.20 181.71,395.23 170.81,385.16 C160.35,375.48 155.60,361.72 157.81,347.49 C160.83,328.03 173.85,316.00 191.88,316.00 C209.09,316.00 222.87,325.72 238.67,349.00 C242.35,354.41 256.00,380.22 256.00,381.75 C256.00,382.35 254.43,383.81 252.50,385.00 C248.17,387.67 248.11,389.30 252.18,393.01 L 255.35 395.92 L 250.80 400.78 C248.29,403.46 245.01,407.60 243.51,409.99 C240.67,414.48 234.77,427.00 235.49,427.00 C235.72,427.00 237.36,424.86 239.14,422.25 C243.92,415.25 253.96,405.07 258.25,402.88 C260.31,401.82 261.99,401.31 261.99,401.73 C261.98,402.15 260.86,406.55 259.49,411.49 C256.38,422.73 256.32,426.28 259.35,418.89 C261.96,412.55 265.33,406.80 267.47,405.02 C268.66,404.04 269.29,404.43 270.96,407.16 C273.30,411.01 277.44,423.07 279.07,430.82 C279.69,433.74 280.37,435.96 280.59,435.74 C281.37,434.96 279.15,416.22 277.49,409.62 C276.56,405.90 276.06,402.60 276.38,402.28 C277.45,401.22 288.38,409.21 295.26,416.07 L 302.03 422.82 L 299.32 417.86 C297.84,415.12 293.11,409.13 288.81,404.54 C280.25,395.39 279.25,393.00 284.00,393.00 C288.42,393.00 287.93,389.88 283.00,386.62 C280.80,385.16 279.00,383.56 279.00,383.06 C279.00,380.86 307.50,356.51 320.00,348.02 C326.54,343.59 337.84,337.66 343.70,335.60 C351.25,332.94 362.86,331.76 369.97,332.91 C379.30,334.42 384.85,337.58 387.76,343.02 C389.95,347.11 390.13,348.45 389.82,358.50 C389.50,368.78 389.24,370.01 385.78,377.27 C379.60,390.25 369.30,399.14 355.30,403.59 C347.79,405.98 331.03,406.49 320.53,404.66 C315.60,403.80 311.42,403.25 311.23,403.44 C311.05,403.62 312.50,404.76 314.46,405.97 C335.10,418.73 344.66,440.91 336.61,457.36 C327.07,476.86 296.69,485.71 281.93,473.29 C277.45,469.52 273.56,463.33 270.74,455.50 L 268.22 448.50 L 267.49 455.33 C266.39,465.51 267.54,488.47 269.52,496.00 C270.46,499.58 272.95,506.21 275.05,510.75 C277.15,515.29 278.68,519.00 278.46,519.00 C278.23,519.00 276.19,516.65 273.93,513.79 ZM 591.00 511.30 C587.99,510.20 584.01,505.57 583.43,502.49 C582.67,498.44 585.05,492.67 588.37,490.49 C591.41,488.50 598.93,488.31 601.88,490.16 C604.68,491.91 604.60,493.43 601.75,492.50 C600.51,492.09 597.66,491.55 595.41,491.29 C591.78,490.88 591.03,491.18 588.66,493.99 C584.15,499.35 585.42,506.02 591.42,508.53 C594.71,509.90 598.40,509.57 600.79,507.70 C601.68,507.01 602.44,507.04 603.22,507.82 C605.44,510.04 595.40,512.90 591.00,511.30 ZM 622.00 510.25 C619.85,509.17 617.78,507.02 616.62,504.65 C610.64,492.40 628.50,482.49 637.44,493.11 C643.46,500.26 637.50,512.00 627.85,512.00 C626.56,512.00 623.92,511.21 622.00,510.25 ZM 631.47 508.58 C636.20,506.60 638.48,502.00 636.98,497.44 C635.51,492.98 632.56,491.00 627.37,491.00 C617.52,491.00 614.54,504.05 623.38,508.42 C627.24,510.32 627.30,510.32 631.47,508.58 ZM 656.92 509.08 C654.15,506.30 654.00,505.72 654.00,497.64 C654.00,483.17 656.58,486.61 657.26,501.99 C657.47,506.91 657.79,507.62 660.29,508.81 C663.85,510.51 668.05,509.23 669.74,505.92 C670.41,504.59 670.98,500.24 670.99,496.25 C670.99,492.09 671.43,489.00 672.00,489.00 C673.09,489.00 673.42,504.75 672.38,507.46 C671.52,509.69 666.74,512.00 662.97,512.00 C660.85,512.00 658.91,511.06 656.92,509.08 ZM 689.00 500.58 C689.00,491.67 689.30,489.00 690.32,489.00 C691.04,489.00 694.75,492.88 698.57,497.63 L 705.50 506.26 L 706.00 497.62 C706.28,492.87 706.95,488.87 707.50,488.74 C708.77,488.44 709.26,510.72 708.00,511.50 C707.51,511.80 703.72,507.97 699.59,502.98 L 692.08 493.90 L 691.79 502.62 C691.59,508.49 691.09,511.47 690.25,511.75 C689.30,512.07 689.00,509.40 689.00,500.58 ZM 725.75 510.89 C724.24,510.31 723.00,509.22 723.00,508.47 C723.00,507.34 723.63,507.36 726.60,508.61 C730.83,510.37 735.58,509.66 736.98,507.04 C738.26,504.64 735.84,502.54 730.00,501.00 C724.27,499.48 723.00,498.40 723.00,495.03 C723.00,490.33 728.65,487.28 734.48,488.84 C739.62,490.21 738.46,491.70 732.63,491.22 C727.82,490.82 727.06,491.02 726.03,492.95 C724.46,495.88 726.02,497.67 731.37,499.07 C737.20,500.61 740.00,502.65 740.00,505.37 C740.00,510.23 732.05,513.31 725.75,510.89 ZM 754.00 500.50 L 754.00 489.00 L 762.00 489.00 C766.67,489.00 770.00,489.42 770.00,490.00 C770.00,490.57 767.00,491.00 763.00,491.00 L 756.00 491.00 L 756.00 495.00 L 756.00 499.00 L 762.50 499.00 C766.17,499.00 769.00,499.44 769.00,500.00 C769.00,500.57 766.15,501.00 762.44,501.00 L 755.89 501.00 L 756.19 505.25 L 756.50 509.50 L 762.00 509.61 C769.50,509.77 770.00,509.85 770.00,511.00 C770.00,511.58 766.67,512.00 762.00,512.00 L 754.00 512.00 L 754.00 500.50 ZM 784.71 511.37 C784.32,510.98 784.00,505.79 784.00,499.83 C784.00,490.87 784.26,489.00 785.50,489.00 C786.73,489.00 787.00,490.77 787.00,498.95 L 787.00 508.90 L 793.25 509.20 C796.69,509.37 799.50,509.95 799.50,510.50 C799.50,511.64 785.78,512.45 784.71,511.37 ZM 812.67 511.33 C812.30,510.97 812.00,505.79 812.00,499.83 C812.00,490.87 812.26,489.00 813.50,489.00 C814.75,489.00 815.00,490.94 815.00,500.50 C815.00,511.02 814.53,513.20 812.67,511.33 ZM 831.00 500.50 C831.00,491.96 831.32,489.00 832.25,489.01 C832.94,489.02 836.65,492.95 840.50,497.76 L 847.50 506.50 L 847.79 497.75 C848.22,484.75 850.00,486.97 850.00,500.50 C850.00,506.83 849.65,512.00 849.22,512.00 C848.78,512.00 845.30,507.97 841.47,503.05 C837.63,498.12 834.16,494.07 833.75,494.05 C833.34,494.02 833.00,498.05 833.00,503.00 C833.00,508.33 832.59,512.00 832.00,512.00 C831.39,512.00 831.00,507.50 831.00,500.50 ZM 871.33 510.54 C869.58,509.78 867.38,507.98 866.44,506.55 C864.47,503.54 864.19,497.37 865.89,494.20 C868.35,489.61 877.86,487.25 882.95,489.97 C885.48,491.32 885.75,493.55 883.25,492.44 C882.29,492.01 879.60,491.47 877.27,491.23 C873.61,490.86 872.64,491.20 870.02,493.82 C866.18,497.67 866.05,501.71 869.63,505.97 C872.03,508.82 872.70,509.07 877.38,508.80 L 882.50 508.50 L 882.81 504.25 C883.21,498.64 886.01,498.20 885.98,503.75 C885.97,508.37 885.24,509.58 881.66,510.94 C877.99,512.33 875.20,512.23 871.33,510.54 ZM 919.25 510.78 C918.01,510.18 917.00,509.15 917.00,508.48 C917.00,507.57 918.05,507.62 921.30,508.69 C926.43,510.38 931.00,509.18 931.00,506.15 C931.00,503.65 929.40,502.44 924.29,501.07 C919.30,499.74 917.00,497.69 917.00,494.58 C917.00,490.05 923.20,487.39 929.62,489.16 C934.99,490.64 933.54,491.86 927.10,491.28 C921.84,490.80 921.09,490.97 920.08,492.85 C918.57,495.67 921.33,498.47 926.61,499.45 C934.00,500.82 936.35,506.00 931.37,509.93 C928.48,512.19 922.98,512.58 919.25,510.78 ZM 948.00 500.50 L 948.00 489.00 L 956.00 489.00 C960.67,489.00 964.00,489.42 964.00,490.00 C964.00,490.57 961.00,491.00 957.00,491.00 L 950.00 491.00 L 950.00 495.00 L 950.00 499.00 L 955.94 499.00 C959.21,499.00 962.16,499.45 962.50,500.00 C962.89,500.63 960.66,501.00 956.50,501.00 L 949.89 501.00 L 950.19 505.25 L 950.50 509.49 L 957.25 509.29 C962.58,509.13 964.00,509.40 964.00,510.55 C964.00,511.70 962.33,512.00 956.00,512.00 L 948.00 512.00 L 948.00 500.50 ZM 978.81 500.50 L 978.50 489.00 L 985.30 489.00 C991.18,489.00 992.42,489.33 994.55,491.45 C997.71,494.62 997.67,498.42 994.45,501.64 L 991.90 504.19 L 994.55 507.66 C998.44,512.75 996.46,513.23 992.17,508.23 C989.05,504.61 987.93,503.97 984.75,503.98 C981.04,504.00 981.00,504.05 981.00,508.00 C981.00,510.20 980.58,512.00 980.06,512.00 C979.54,512.00 978.98,506.82 978.81,500.50 ZM 992.43 500.43 C994.66,498.20 994.45,493.31 992.07,492.04 C991.00,491.47 988.08,491.00 985.57,491.00 L 981.00 491.00 L 981.00 496.50 L 981.00 502.00 L 985.93 502.00 C989.08,502.00 991.43,501.43 992.43,500.43 ZM 1014.51 504.59 C1012.65,500.52 1010.19,495.34 1009.05,493.09 C1007.29,489.64 1007.20,489.00 1008.50,489.00 C1009.47,489.00 1011.57,492.35 1014.16,498.00 C1016.43,502.95 1018.56,506.99 1018.89,506.99 C1019.23,506.98 1021.27,502.93 1023.43,497.99 C1025.59,493.04 1027.96,489.00 1028.70,489.00 C1029.80,489.00 1029.79,489.56 1028.66,492.25 C1024.33,502.53 1019.60,512.00 1018.80,512.00 C1018.30,512.00 1016.37,508.67 1014.51,504.59 ZM 1042.64 511.31 C1042.29,510.95 1042.00,505.79 1042.00,499.83 C1042.00,490.87 1042.26,489.00 1043.50,489.00 C1044.74,489.00 1045.00,490.88 1045.00,499.94 C1045.00,509.94 1044.36,513.03 1042.64,511.31 ZM 1065.31 510.59 C1059.95,508.17 1057.43,500.53 1060.09,494.71 C1062.38,489.68 1071.50,487.06 1076.81,489.90 C1079.43,491.30 1079.83,493.58 1077.25,492.44 C1076.29,492.01 1073.61,491.47 1071.30,491.23 C1067.82,490.88 1066.67,491.24 1064.59,493.32 C1059.42,498.49 1060.56,505.06 1067.17,508.30 C1070.56,509.95 1071.13,509.97 1074.58,508.53 C1078.75,506.79 1080.17,507.26 1077.83,509.60 C1075.64,511.79 1069.11,512.30 1065.31,510.59 ZM 1094.00 500.50 L 1094.00 489.00 L 1102.06 489.00 C1107.18,489.00 1109.89,489.36 1109.50,490.00 C1109.16,490.55 1105.98,491.00 1102.44,491.00 L 1096.00 491.00 L 1096.00 495.00 L 1096.00 499.00 L 1102.00 499.00 C1105.33,499.00 1108.00,499.44 1108.00,500.00 C1108.00,500.56 1105.31,501.00 1101.94,501.00 L 1095.89 501.00 L 1096.19 505.25 L 1096.50 509.50 L 1102.92 509.52 C1107.11,509.53 1109.49,509.96 1109.76,510.77 C1110.06,511.68 1108.05,512.00 1102.08,512.00 L 1094.00 512.00 L 1094.00 500.50 ZM 1124.72 510.41 C1120.59,508.17 1122.33,507.01 1127.24,508.73 C1132.31,510.51 1137.00,509.27 1137.00,506.15 C1137.00,503.56 1135.23,502.29 1129.96,501.10 C1123.24,499.59 1120.37,494.58 1123.99,490.67 C1126.20,488.28 1136.91,488.22 1137.70,490.58 C1137.94,491.31 1136.29,491.52 1132.74,491.23 C1128.59,490.88 1127.11,491.16 1126.02,492.48 C1123.87,495.07 1125.87,497.24 1132.35,499.32 C1138.82,501.40 1140.83,503.88 1139.12,507.65 C1137.19,511.88 1129.98,513.26 1124.72,510.41 ZM 353.00 505.62 C353.00,505.41 353.79,504.63 354.75,503.87 C356.34,502.63 356.37,502.66 355.13,504.25 C353.82,505.92 353.00,506.45 353.00,505.62 ZM 329.43 495.11 C330.15,493.95 334.00,491.63 334.00,492.35 C334.00,492.58 332.82,493.54 331.38,494.49 C329.93,495.43 329.06,495.71 329.43,495.11 ZM 338.00 489.28 C338.00,489.15 339.46,488.31 341.25,487.41 C343.04,486.51 346.94,483.24 349.92,480.14 C352.91,477.04 354.39,475.77 353.23,477.31 C352.06,478.86 351.34,480.73 351.62,481.46 C351.91,482.20 351.66,483.09 351.08,483.45 C350.41,483.86 350.26,483.44 350.67,482.30 C351.11,481.04 350.37,481.38 348.19,483.40 C346.47,485.00 345.30,486.68 345.59,487.14 C345.87,487.60 345.29,487.67 344.30,487.30 C342.83,486.75 342.71,486.89 343.66,488.06 C344.63,489.26 344.26,489.50 341.41,489.50 C339.54,489.50 338.00,489.40 338.00,489.28 ZM 360.81 466.25 C362.44,464.19 364.83,461.60 366.11,460.50 C367.39,459.40 366.54,460.70 364.22,463.39 C361.90,466.08 360.00,468.67 360.00,469.14 C360.00,469.61 359.51,470.00 358.92,470.00 C358.32,470.00 359.17,468.31 360.81,466.25 ZM 369.00 457.70 C369.00,457.45 371.12,455.51 373.70,453.39 C376.29,451.27 378.08,450.06 377.69,450.69 C376.85,452.05 369.00,458.39 369.00,457.70 ZM 376.50 454.00 C376.84,453.45 377.57,453.00 378.12,453.00 C378.67,453.00 378.84,453.45 378.50,454.00 C378.16,454.55 377.43,455.00 376.88,455.00 C376.33,455.00 376.16,454.55 376.50,454.00 ZM 603.00 449.02 C603.00,442.39 608.78,413.94 614.83,390.80 L 619.72 372.11 L 616.61 372.66 C606.81,374.42 585.51,381.28 577.50,385.26 C561.06,393.42 549.11,405.84 549.02,414.85 C548.98,419.07 552.13,424.16 555.71,425.65 C559.44,427.21 559.26,429.00 555.39,429.00 C551.64,429.00 547.15,426.29 544.96,422.70 C540.76,415.81 543.93,405.12 552.63,396.90 C558.87,391.02 561.88,388.99 571.66,384.11 C583.35,378.28 588.83,376.32 605.50,372.05 L 620.50 368.20 L 627.23 340.85 C636.15,304.63 638.18,298.32 642.58,293.17 C644.55,290.88 646.97,289.00 647.97,289.00 C651.62,289.00 651.25,292.31 646.57,301.37 C642.73,308.81 640.84,314.77 634.91,338.21 C631.02,353.59 627.99,366.31 628.17,366.47 C628.35,366.64 634.35,366.18 641.50,365.44 C648.65,364.71 658.20,364.08 662.72,364.05 L 670.94 364.00 L 672.53 358.25 C676.38,344.32 687.57,310.95 692.75,297.98 C699.57,280.91 703.66,275.68 709.80,276.19 C713.10,276.47 713.53,276.83 713.80,279.51 C713.98,281.43 712.08,287.39 708.56,295.86 C698.23,320.74 683.51,362.40 684.49,363.98 C684.73,364.38 687.76,364.97 691.22,365.30 C698.86,366.03 704.00,367.73 704.00,369.54 C704.00,371.78 702.19,372.17 699.63,370.49 C698.29,369.62 694.02,368.63 690.13,368.31 L 683.06 367.71 L 681.94 370.61 C679.81,376.13 673.20,403.53 672.51,409.68 C671.65,417.40 672.39,420.00 675.47,420.00 C681.46,420.00 701.91,399.66 708.47,387.19 C713.04,378.49 720.31,370.29 728.03,365.14 C735.09,360.43 743.67,358.07 747.47,359.81 C757.38,364.32 743.52,381.15 720.20,392.90 C713.33,396.37 712.55,397.45 712.52,403.67 C712.48,412.47 719.91,415.36 731.21,410.93 C738.76,407.97 755.39,396.54 760.03,391.11 C762.20,388.58 765.91,384.02 768.28,381.00 C773.96,373.76 782.43,367.93 788.23,367.28 C792.16,366.83 793.09,367.14 796.31,369.97 C799.65,372.90 800.11,373.04 802.03,371.69 C804.48,369.98 807.60,370.51 808.47,372.79 C808.82,373.70 807.08,378.50 804.43,383.94 C794.33,404.69 793.40,412.98 801.66,408.66 C804.50,407.17 818.27,393.71 821.76,389.00 C822.78,387.62 825.12,382.99 826.96,378.70 C831.40,368.37 835.73,364.87 839.46,368.61 C841.36,370.50 841.24,370.99 835.37,384.79 C832.97,390.46 831.00,395.40 831.00,395.78 C831.00,396.16 832.52,394.23 834.37,391.49 C838.68,385.12 847.46,376.82 852.78,374.11 C857.68,371.61 863.23,371.38 865.43,373.57 C868.58,376.72 866.63,378.73 862.50,376.58 C860.45,375.52 859.06,375.43 856.82,376.21 C847.36,379.51 838.58,389.29 828.99,407.20 L 823.47 417.50 L 819.49 417.50 C815.96,417.50 815.47,417.21 815.20,414.95 C815.04,413.55 816.20,408.75 817.79,404.27 L 820.66 396.14 L 812.70 403.54 C803.79,411.81 797.87,414.79 793.32,413.28 C789.25,411.93 787.80,408.55 788.42,401.85 L 788.95 396.20 L 783.22 402.21 C776.33,409.44 770.24,413.20 765.43,413.20 C759.17,413.20 756.24,408.29 757.96,400.68 L 758.79 396.98 L 756.15 399.02 C741.53,410.27 729.25,416.31 719.90,416.83 C709.50,417.42 704.44,413.58 703.84,404.64 L 703.59 401.03 L 694.30 410.47 C681.69,423.29 674.02,427.48 667.63,425.05 C660.42,422.31 660.37,407.23 667.46,378.00 C668.19,374.98 669.09,371.20 669.45,369.61 L 670.11 366.72 L 659.30 367.40 C648.11,368.11 633.46,369.64 628.86,370.57 C626.37,371.08 625.93,372.13 621.11,389.40 C613.16,417.84 609.24,434.14 607.85,444.49 C606.78,452.48 606.28,454.00 604.79,454.00 C603.31,454.00 603.00,453.13 603.00,449.02 ZM 771.84 407.63 C778.01,404.21 793.43,386.26 796.00,379.51 C797.42,375.78 795.72,373.00 792.02,373.00 C785.94,373.00 770.72,390.64 767.46,401.47 C765.37,408.42 766.80,410.43 771.84,407.63 ZM 738.62 376.43 C744.93,370.30 747.23,365.83 745.13,363.73 C742.52,361.12 730.00,370.02 723.08,379.39 C719.58,384.13 716.00,390.21 716.00,391.42 C716.00,393.04 733.36,381.55 738.62,376.43 ZM 876.91 432.91 C867.07,423.07 870.37,394.97 885.84,357.00 L 888.89 349.50 L 884.75 349.18 C880.55,348.86 853.44,351.33 842.53,353.03 C836.52,353.97 833.81,353.21 836.21,351.27 C836.92,350.69 841.33,349.72 846.00,349.11 C853.51,348.13 886.60,345.02 889.67,345.01 C890.31,345.00 894.03,338.95 897.93,331.56 C906.86,314.65 910.76,311.34 916.78,315.56 C919.96,317.78 919.55,320.59 914.90,328.52 C912.65,332.36 909.75,337.58 908.46,340.11 L 906.10 344.73 L 917.80 345.25 C930.07,345.80 935.00,346.98 935.00,349.39 C935.00,351.52 932.75,351.96 930.75,350.22 C929.46,349.09 925.73,348.57 916.50,348.21 L 903.99 347.73 L 898.61 359.11 C888.03,381.54 883.17,396.18 880.97,412.24 C879.74,421.20 880.28,427.67 882.51,430.61 C883.29,431.65 883.95,433.06 883.97,433.75 C884.02,435.76 879.19,435.19 876.91,432.91 ZM 1053.75 428.98 C1052.79,428.38 1052.00,427.01 1052.00,425.93 C1052.00,422.92 1059.15,415.81 1068.03,409.98 C1072.41,407.10 1076.00,404.48 1076.00,404.16 C1076.00,403.83 1073.70,401.23 1070.88,398.38 L 1065.76 393.20 L 1057.13 401.98 C1047.87,411.39 1043.66,414.15 1038.33,414.30 C1031.90,414.48 1028.91,408.23 1031.30,399.63 C1031.98,397.17 1031.17,397.70 1025.50,403.46 C1021.31,407.72 1016.88,411.08 1013.33,412.70 C1008.02,415.14 1007.61,415.18 1004.43,413.67 C1000.73,411.90 999.27,407.62 1000.48,402.08 C1001.20,398.81 1000.06,398.02 998.07,400.42 C997.42,401.20 993.76,403.73 989.94,406.04 C964.87,421.18 947.00,418.72 947.00,400.13 C947.00,396.76 946.66,394.03 946.25,394.07 C945.84,394.11 942.39,396.03 938.58,398.32 L 931.66 402.50 L 931.58 408.20 C931.51,413.46 931.19,414.23 927.50,418.00 C918.38,427.34 899.00,432.10 899.00,424.99 C899.00,421.34 902.11,418.01 912.16,410.89 C917.57,407.05 922.00,403.63 922.00,403.29 C922.00,402.95 919.32,399.88 916.06,396.48 C909.65,389.81 908.41,386.98 909.45,381.44 C911.12,372.52 929.21,361.85 937.38,364.95 C940.94,366.31 940.99,369.47 937.43,368.57 C933.88,367.68 926.84,371.37 921.93,376.69 C918.69,380.21 918.00,381.67 918.00,385.07 C918.00,388.67 918.65,389.86 923.31,394.70 L 928.62 400.23 L 933.06 397.97 C943.79,392.51 949.48,388.14 951.91,383.52 C954.87,377.86 965.21,368.05 971.30,365.10 C987.51,357.25 996.06,365.89 983.74,377.65 C977.13,383.96 972.71,386.90 964.40,390.51 C960.17,392.35 956.33,394.45 955.87,395.18 C954.50,397.33 954.88,404.87 956.52,408.04 C957.35,409.65 959.18,411.26 960.57,411.61 C971.98,414.47 997.02,401.13 1007.32,386.71 C1015.19,375.67 1025.23,368.08 1032.03,368.02 C1034.65,368.00 1038.63,370.27 1040.68,372.95 C1041.63,374.19 1042.12,374.25 1043.13,373.25 C1043.83,372.56 1045.63,372.00 1047.13,372.00 C1051.81,372.00 1051.53,374.84 1045.59,387.66 C1038.99,401.90 1037.03,408.43 1038.81,410.21 C1040.81,412.21 1046.12,408.62 1055.47,398.92 C1063.40,390.70 1063.87,389.96 1063.34,386.72 C1062.13,379.28 1070.68,369.31 1080.79,366.37 C1086.95,364.58 1092.26,365.42 1092.81,368.26 C1093.07,369.59 1092.43,369.92 1089.79,369.82 C1081.17,369.49 1069.87,380.66 1071.65,387.74 C1072.03,389.24 1074.57,392.84 1077.31,395.73 L 1082.28 400.99 L 1085.89 398.83 C1092.90,394.63 1097.82,389.98 1100.77,384.77 C1106.46,374.71 1118.97,365.16 1128.54,363.57 C1136.55,362.23 1140.85,366.53 1137.67,372.67 C1134.24,379.31 1119.85,389.76 1109.74,392.97 C1105.22,394.40 1104.00,396.41 1104.00,402.38 C1104.00,405.71 1104.63,407.62 1106.42,409.69 C1108.61,412.24 1109.42,412.49 1115.17,412.41 C1126.13,412.25 1145.94,402.99 1161.08,390.93 C1168.90,384.70 1170.00,384.14 1170.00,386.40 C1170.00,390.08 1146.36,406.05 1132.97,411.40 C1116.08,418.17 1104.99,418.17 1099.05,411.40 C1096.02,407.95 1094.37,402.51 1095.29,398.99 C1095.99,396.32 1095.33,396.46 1089.90,400.17 C1085.32,403.29 1085.25,403.42 1085.38,408.57 C1085.48,413.02 1085.04,414.38 1082.42,417.65 C1076.62,424.89 1058.65,431.99 1053.75,428.98 ZM 1065.50 424.11 C1070.70,421.71 1076.72,415.57 1077.54,411.82 C1077.90,410.19 1077.93,408.60 1077.62,408.29 C1075.82,406.48 1055.10,422.74 1056.45,424.91 C1057.44,426.51 1060.97,426.20 1065.50,424.11 ZM 912.51 422.89 C919.70,419.10 924.48,413.17 923.81,408.89 C923.53,407.12 922.79,407.39 916.50,411.52 C908.60,416.71 903.00,421.76 903.00,423.70 C903.00,425.69 908.02,425.27 912.51,422.89 ZM 1016.32 407.12 C1022.02,403.20 1028.81,395.76 1034.49,387.22 C1038.23,381.60 1039.10,379.54 1038.59,377.50 C1037.11,371.59 1031.58,373.13 1023.04,381.82 C1012.39,392.67 1005.13,410.00 1011.24,410.00 C1011.73,410.00 1014.02,408.71 1016.32,407.12 ZM 1125.73 380.82 C1131.48,376.39 1135.51,370.78 1134.63,368.47 C1133.31,365.04 1125.34,367.80 1118.59,374.02 C1114.11,378.16 1107.00,387.88 1107.00,389.88 C1107.00,391.53 1119.99,385.25 1125.73,380.82 ZM 967.22 385.92 C977.33,380.84 987.03,371.13 985.63,367.47 C984.24,363.85 976.26,366.84 968.61,373.85 C965.70,376.52 958.00,387.61 958.00,389.13 C958.00,390.07 961.10,389.00 967.22,385.92 ZM 394.49 419.25 C401.08,402.94 405.95,386.51 409.95,367.11 C413.09,351.92 414.63,348.81 419.70,347.54 C421.07,347.19 423.77,347.43 425.69,348.06 L 429.17 349.21 L 426.17 351.86 C423.70,354.03 422.70,356.34 420.58,364.80 C415.79,383.90 409.64,398.51 400.40,412.75 C395.37,420.49 392.88,423.23 394.49,419.25 ZM 148.27 408.73 C139.29,395.12 133.16,380.87 128.44,362.62 C125.66,351.84 123.48,348.04 120.06,347.97 C116.35,347.89 122.60,345.00 126.47,345.00 C134.28,345.00 135.29,346.66 139.51,366.50 C142.37,379.94 146.48,393.93 151.67,407.84 C153.58,412.98 154.97,417.36 154.76,417.57 C154.54,417.79 151.62,413.81 148.27,408.73 ZM 417.00 416.49 C417.00,415.94 418.57,411.11 420.49,405.74 C425.19,392.59 429.41,376.36 432.46,359.71 C435.24,344.54 436.42,341.51 441.04,337.62 C444.48,334.73 449.87,334.17 453.71,336.30 L 455.93 337.53 L 453.07 339.45 C448.80,342.32 447.42,345.29 440.51,366.52 C433.95,386.65 426.95,402.70 420.65,412.06 C418.64,415.04 417.00,417.03 417.00,416.49 ZM 129.01 409.75 C122.95,401.60 114.13,381.95 107.85,362.59 C102.87,347.23 101.06,342.90 98.58,340.41 C96.89,338.71 94.82,337.06 94.00,336.74 C92.67,336.22 92.67,336.03 94.00,335.09 C99.02,331.54 107.39,333.65 110.90,339.36 C111.96,341.09 114.02,348.12 115.47,355.00 C120.27,377.82 126.01,397.73 131.41,410.25 C132.30,412.31 132.83,414.00 132.60,414.00 C132.37,414.00 130.75,412.09 129.01,409.75 ZM 441.25 409.75 C440.56,408.88 441.60,404.36 444.64,395.00 C447.06,387.58 451.24,373.12 453.94,362.89 C459.82,340.64 460.98,337.66 465.80,332.63 C470.46,327.76 474.54,326.00 481.13,326.00 L 486.32 326.00 L 480.11 332.46 C472.43,340.46 469.93,345.85 462.62,370.20 C456.43,390.79 450.57,407.61 448.86,409.67 C447.46,411.35 442.57,411.40 441.25,409.75 ZM 102.37 409.01 C99.77,407.96 96.74,400.31 87.01,370.19 C77.98,342.23 75.89,337.88 68.14,330.87 C64.76,327.81 62.00,325.01 62.00,324.65 C62.00,323.02 71.87,324.19 76.60,326.39 C84.85,330.23 87.99,335.96 93.95,358.00 C96.26,366.52 100.59,380.79 103.57,389.69 C106.56,398.59 109.00,406.53 109.00,407.33 C109.00,408.13 108.29,409.06 107.42,409.39 C105.49,410.13 105.07,410.10 102.37,409.01 ZM 267.48 365.49 C265.88,342.13 271.72,325.16 286.01,311.65 C309.13,289.78 348.30,288.23 366.78,308.45 C371.46,313.58 375.00,320.77 375.00,325.18 C375.00,327.39 374.93,327.39 365.82,325.40 C361.13,324.37 353.83,323.81 345.50,323.83 C329.98,323.87 321.30,325.82 308.22,332.17 C296.22,338.00 284.83,349.30 276.17,363.95 C272.78,369.69 270.00,374.75 270.00,375.20 C270.00,375.64 269.59,376.00 269.10,376.00 C268.60,376.00 267.87,371.27 267.48,365.49 ZM 259.67 369.51 C259.22,367.87 256.89,362.59 254.50,357.78 C241.27,331.15 223.45,314.51 203.75,310.37 C196.47,308.84 186.35,309.15 181.30,311.07 C178.10,312.29 175.97,308.75 175.27,301.04 C174.78,295.67 175.07,294.29 177.90,288.56 C183.68,276.82 195.21,270.11 211.10,269.24 C221.60,268.67 228.19,269.99 237.78,274.60 C250.89,280.91 262.78,295.22 268.50,311.60 L 270.86 318.34 L 268.00 324.00 C263.36,333.19 261.73,341.10 261.09,357.50 C260.67,368.03 260.25,371.61 259.67,369.51 Z" fill="rgba(0,0,0,1)"/>
</g>
</svg>